<svg width="153" height="44" viewBox="0 0 153 44" fill="none" xmlns="http://www.w3.org/2000/svg">
<path d="M151.56 38.9255C151.56 41.2704 149.621 43.1697 147.223 43.1697H5.28741C2.89031 43.1697 0.94458 41.2704 0.94458 38.9255V5.07978C0.94458 2.73607 2.89031 0.830078 5.28741 0.830078H147.222C149.621 0.830078 151.559 2.73607 151.559 5.07978L151.56 38.9255Z" fill="black"/>
<path d="M146.765 0.881376C149.377 0.881376 151.502 2.9535 151.502 5.5V38.5C151.502 41.0465 149.377 43.1186 146.765 43.1186H5.73941C3.12762 43.1186 1.00236 41.0465 1.00236 38.5V5.5C1.00236 2.9535 3.12762 0.881376 5.73941 0.881376H146.765ZM146.765 2.32537e-06H5.73941C2.63826 2.32537e-06 0.0983887 2.47638 0.0983887 5.5V38.5C0.0983887 41.5236 2.63826 44 5.73941 44H146.765C149.866 44 152.406 41.5236 152.406 38.5V5.5C152.406 2.47638 149.866 2.32537e-06 146.765 2.32537e-06Z" fill="#A6A6A6"/>
<path d="M34.0889 21.7623C34.0562 18.217 37.0663 16.4922 37.2039 16.4119C35.4992 13.9886 32.8569 13.6575 31.9284 13.6311C29.7093 13.4034 27.5566 14.9258 26.4262 14.9258C25.2732 14.9258 23.5323 13.6531 21.6561 13.6905C19.2418 13.7268 16.9831 15.0897 15.7443 17.2061C13.1878 21.5214 15.0945 27.8629 17.5438 31.351C18.769 33.0593 20.2007 34.9667 22.0747 34.8996C23.908 34.8259 24.5928 33.76 26.8053 33.76C28.9974 33.76 29.6404 34.8996 31.5516 34.8567C33.5192 34.8259 34.758 33.1407 35.9403 31.417C37.3562 29.459 37.9248 27.5307 37.9474 27.4317C37.9011 27.4163 34.1262 26.0116 34.0889 21.7623Z" fill="white"/>
<path d="M30.4787 11.3365C31.4647 10.1342 32.1394 8.49852 31.9521 6.83862C30.5249 6.90022 28.7401 7.80112 27.7123 8.97702C26.803 10.0132 25.9907 11.7116 26.2005 13.3088C27.8037 13.4254 29.4498 12.5201 30.4787 11.3365Z" fill="white"/>
<path d="M60.6209 34.6544H58.0588L56.6553 30.3545H51.7769L50.44 34.6544H47.9456L52.7788 20.0156H55.764L60.6209 34.6544ZM56.2322 28.5505L54.963 24.728C54.8287 24.3375 54.5771 23.4179 54.206 21.9703H54.1608C54.013 22.5929 53.775 23.5125 53.4478 24.728L52.2011 28.5505H56.2322Z" fill="white"/>
<path d="M73.0505 29.2468C73.0505 31.042 72.553 32.461 71.5579 33.5027C70.6666 34.43 69.5598 34.8931 68.2387 34.8931C66.8127 34.8931 65.7882 34.3937 65.1643 33.3949H65.1192V38.9554H62.7139V27.5737C62.7139 26.4451 62.6834 25.2868 62.6248 24.0988H64.7401L64.8744 25.7719H64.9195C65.7217 24.5113 66.939 23.8821 68.5727 23.8821C69.8498 23.8821 70.9159 24.3738 71.7689 25.3583C72.624 26.3439 73.0505 27.6397 73.0505 29.2468ZM70.6 29.3326C70.6 28.3052 70.3631 27.4582 69.887 26.7916C69.3669 26.0964 68.6685 25.7488 67.7931 25.7488C67.1996 25.7488 66.6603 25.9424 66.1786 26.3241C65.6957 26.7091 65.3798 27.2118 65.232 27.8344C65.1576 28.1248 65.1203 28.3624 65.1203 28.5494V30.3094C65.1203 31.0772 65.3618 31.7251 65.8447 32.2542C66.3275 32.7833 66.9548 33.0473 67.7265 33.0473C68.6324 33.0473 69.3376 32.7063 69.8419 32.0265C70.3473 31.3456 70.6 30.448 70.6 29.3326Z" fill="white"/>
<path d="M85.5025 29.2468C85.5025 31.042 85.005 32.461 84.0088 33.5027C83.1186 34.43 82.0118 34.8931 80.6907 34.8931C79.2646 34.8931 78.2402 34.3937 77.6175 33.3949H77.5723V38.9554H75.167V27.5737C75.167 26.4451 75.1365 25.2868 75.0779 24.0988H77.1933L77.3275 25.7719H77.3726C78.1737 24.5113 79.391 23.8821 81.0258 23.8821C82.3018 23.8821 83.3679 24.3738 84.2231 25.3583C85.0749 26.3439 85.5025 27.6397 85.5025 29.2468ZM83.052 29.3326C83.052 28.3052 82.814 27.4582 82.3379 26.7916C81.8178 26.0964 81.1217 25.7488 80.2451 25.7488C79.6505 25.7488 79.1123 25.9424 78.6295 26.3241C78.1466 26.7091 77.8318 27.2118 77.684 27.8344C77.6107 28.1248 77.5723 28.3624 77.5723 28.5494V30.3094C77.5723 31.0772 77.8138 31.7251 78.2944 32.2542C78.7773 32.7822 79.4046 33.0473 80.1785 33.0473C81.0845 33.0473 81.7896 32.7063 82.2939 32.0265C82.7993 31.3456 83.052 30.448 83.052 29.3326Z" fill="white"/>
<path d="M99.4243 30.5491C99.4243 31.7943 98.9809 32.8074 98.0908 33.5895C97.1126 34.4442 95.7509 34.871 94.001 34.871C92.3855 34.871 91.0903 34.5674 90.1099 33.9591L90.6672 32.0044C91.7232 32.627 92.8819 32.9394 94.1443 32.9394C95.0503 32.9394 95.7554 32.7392 96.262 32.341C96.7663 31.9428 97.0179 31.4082 97.0179 30.7416C97.0179 30.1476 96.8103 29.6471 96.394 29.2412C95.9799 28.8353 95.2883 28.458 94.3226 28.1093C91.6939 27.1534 90.3806 25.7531 90.3806 23.9117C90.3806 22.7083 90.8409 21.7216 91.7627 20.9538C92.681 20.1849 93.9063 19.801 95.4384 19.801C96.8046 19.801 97.9396 20.0331 98.8456 20.4962L98.2442 22.408C97.3981 21.9592 96.4414 21.7348 95.3707 21.7348C94.5245 21.7348 93.8634 21.9383 93.3896 22.3431C92.989 22.705 92.7882 23.1461 92.7882 23.6686C92.7882 24.2472 93.0172 24.7257 93.4776 25.1019C93.8781 25.4495 94.6058 25.8257 95.6618 26.2316C96.9536 26.7387 97.9024 27.3316 98.5127 28.0114C99.1208 28.689 99.4243 29.5371 99.4243 30.5491Z" fill="white"/>
<path d="M107.377 25.8586H104.726V30.9835C104.726 32.287 105.193 32.9382 106.129 32.9382C106.559 32.9382 106.916 32.9019 107.198 32.8293L107.264 34.6102C106.79 34.7829 106.167 34.8698 105.394 34.8698C104.444 34.8698 103.701 34.5871 103.166 34.0228C102.632 33.4574 102.363 32.5092 102.363 31.1771V25.8564H100.784V24.0964H102.363V22.1637L104.726 21.4685V24.0964H107.377V25.8586Z" fill="white"/>
<path d="M119.339 29.2896C119.339 30.9121 118.863 32.2442 117.913 33.2859C116.917 34.3584 115.595 34.893 113.947 34.893C112.358 34.893 111.093 34.3793 110.15 33.3519C109.207 32.3245 108.735 31.0276 108.735 29.4645C108.735 27.8288 109.22 26.489 110.194 25.4473C111.166 24.4045 112.476 23.8831 114.125 23.8831C115.713 23.8831 116.992 24.3968 117.956 25.4253C118.879 26.423 119.339 27.7111 119.339 29.2896ZM116.844 29.3655C116.844 28.392 116.631 27.5571 116.198 26.8608C115.694 26.0182 114.973 25.598 114.039 25.598C113.072 25.598 112.338 26.0193 111.833 26.8608C111.401 27.5582 111.188 28.4063 111.188 29.4095C111.188 30.383 111.401 31.2179 111.833 31.9131C112.354 32.7557 113.08 33.1759 114.018 33.1759C114.936 33.1759 115.657 32.7469 116.177 31.8911C116.62 31.1816 116.844 30.3379 116.844 29.3655Z" fill="white"/>
<path d="M127.158 26.1613C126.92 26.1184 126.666 26.0964 126.4 26.0964C125.554 26.0964 124.899 26.4077 124.439 27.0314C124.038 27.5814 123.838 28.2766 123.838 29.1159V34.6544H121.433L121.456 27.423C121.456 26.2064 121.426 25.0987 121.366 24.0999H123.461L123.549 26.1195H123.615C123.869 25.4254 124.27 24.8666 124.818 24.4475C125.354 24.0702 125.933 23.8821 126.557 23.8821C126.779 23.8821 126.98 23.8975 127.158 23.925V26.1613Z" fill="white"/>
<path d="M137.915 28.8772C137.915 29.2974 137.887 29.6516 137.827 29.9409H130.611C130.639 30.9837 130.988 31.7812 131.658 32.3312C132.266 32.8229 133.053 33.0693 134.018 33.0693C135.087 33.0693 136.062 32.9032 136.938 32.5699L137.315 34.1979C136.291 34.6335 135.081 34.8502 133.686 34.8502C132.007 34.8502 130.689 34.3684 129.73 33.4059C128.773 32.4434 128.294 31.1509 128.294 29.5295C128.294 27.9378 128.74 26.6123 129.632 25.5552C130.566 24.4266 131.829 23.8623 133.417 23.8623C134.977 23.8623 136.159 24.4266 136.961 25.5552C137.596 26.4517 137.915 27.5605 137.915 28.8772ZM135.622 28.2689C135.637 27.5737 135.481 26.9731 135.155 26.466C134.738 25.8137 134.099 25.4881 133.238 25.4881C132.451 25.4881 131.812 25.806 131.323 26.444C130.923 26.9511 130.685 27.5594 130.611 28.2678H135.622V28.2689Z" fill="white"/>
<path d="M55.4368 11.0101C55.4368 12.3048 55.0385 13.2794 54.2431 13.9339C53.5064 14.5378 52.4594 14.8403 51.1033 14.8403C50.4309 14.8403 49.8555 14.8117 49.3738 14.7545V7.68036C50.0022 7.58136 50.6791 7.53076 51.4102 7.53076C52.702 7.53076 53.6756 7.80466 54.3322 8.35246C55.0678 8.97176 55.4368 9.85726 55.4368 11.0101ZM54.1901 11.042C54.1901 10.2027 53.9622 9.55916 53.5064 9.11036C53.0506 8.66266 52.385 8.43826 51.5083 8.43826C51.136 8.43826 50.819 8.46246 50.5561 8.51306V13.891C50.7017 13.913 50.9679 13.9229 51.3549 13.9229C52.2597 13.9229 52.9581 13.6776 53.45 13.187C53.9419 12.6964 54.1901 11.9814 54.1901 11.042Z" fill="white"/>
<path d="M62.0471 12.1408C62.0471 12.9383 61.8135 13.5917 61.3464 14.1042C60.8568 14.6311 60.2081 14.8941 59.398 14.8941C58.6173 14.8941 57.9957 14.6422 57.532 14.1362C57.0694 13.6313 56.8381 12.9944 56.8381 12.2266C56.8381 11.4236 57.0762 10.7647 57.5545 10.2532C58.0329 9.74165 58.676 9.48535 59.486 9.48535C60.2668 9.48535 60.894 9.73725 61.369 10.2422C61.8203 10.7328 62.0471 11.3664 62.0471 12.1408ZM60.8207 12.1782C60.8207 11.6997 60.7147 11.2894 60.5037 10.9473C60.2555 10.5337 59.9023 10.3269 59.4432 10.3269C58.9682 10.3269 58.6072 10.5337 58.359 10.9473C58.1469 11.2894 58.0419 11.7063 58.0419 12.1991C58.0419 12.6776 58.148 13.0879 58.359 13.43C58.6151 13.8436 58.9716 14.0504 59.4319 14.0504C59.8832 14.0504 60.2374 13.8403 60.4924 13.419C60.7113 13.0703 60.8207 12.6567 60.8207 12.1782Z" fill="white"/>
<path d="M70.9102 9.59106L69.2461 14.7765H68.163L67.4737 12.5248C67.2988 11.9627 67.1567 11.4039 67.0461 10.8495H67.0247C66.922 11.4193 66.7799 11.977 66.5971 12.5248L65.8649 14.7765H64.7694L63.2046 9.59106H64.4197L65.021 12.0562C65.1665 12.6392 65.2861 13.1947 65.382 13.7205H65.4035C65.4915 13.2871 65.637 12.7349 65.8423 12.0672L66.5971 9.59216H67.5606L68.2838 12.0144C68.4586 12.6051 68.6008 13.1738 68.7102 13.7216H68.7429C68.823 13.1881 68.9438 12.6194 69.104 12.0144L69.7493 9.59216H70.9102V9.59106Z" fill="white"/>
<path d="M77.0397 14.7765H75.8573V11.8065C75.8573 10.8913 75.5008 10.4337 74.7855 10.4337C74.4346 10.4337 74.1515 10.5591 73.9315 10.811C73.7137 11.0629 73.6032 11.3599 73.6032 11.6998V14.7754H72.4208V11.0728C72.4208 10.6174 72.4061 10.1235 72.3779 9.58888H73.417L73.4723 10.3996H73.505C73.6426 10.1477 73.848 9.93978 74.1176 9.77368C74.438 9.58008 74.7968 9.48218 75.1894 9.48218C75.6858 9.48218 76.0987 9.63838 76.427 9.95188C76.8355 10.3358 77.0397 10.9089 77.0397 11.6701V14.7765Z" fill="white"/>
<path d="M80.3001 14.7764H79.1189V7.21167H80.3001V14.7764Z" fill="white"/>
<path d="M87.2612 12.1408C87.2612 12.9383 87.0276 13.5917 86.5606 14.1042C86.0709 14.6311 85.4211 14.8941 84.6121 14.8941C83.8303 14.8941 83.2087 14.6422 82.7461 14.1362C82.2835 13.6313 82.0522 12.9944 82.0522 12.2266C82.0522 11.4236 82.2903 10.7647 82.7687 10.2532C83.247 9.74165 83.8901 9.48535 84.699 9.48535C85.4809 9.48535 86.107 9.73725 86.5831 10.2422C87.0344 10.7328 87.2612 11.3664 87.2612 12.1408ZM86.0337 12.1782C86.0337 11.6997 85.9276 11.2894 85.7167 10.9473C85.4696 10.5337 85.1153 10.3269 84.6573 10.3269C84.1812 10.3269 83.8201 10.5337 83.5731 10.9473C83.361 11.2894 83.256 11.7063 83.256 12.1991C83.256 12.6776 83.3621 13.0879 83.5731 13.43C83.8292 13.8436 84.1857 14.0504 84.646 14.0504C85.0973 14.0504 85.4504 13.8403 85.7054 13.419C85.9254 13.0703 86.0337 12.6567 86.0337 12.1782Z" fill="white"/>
<path d="M92.9833 14.7764H91.9217L91.8337 14.1791H91.801C91.4377 14.6554 90.9199 14.8941 90.2474 14.8941C89.7454 14.8941 89.3392 14.7368 89.0335 14.4244C88.756 14.1406 88.6172 13.7875 88.6172 13.3684C88.6172 12.7348 88.888 12.2519 89.4329 11.9175C89.9767 11.5831 90.7416 11.4192 91.7265 11.4269V11.3301C91.7265 10.647 91.3587 10.306 90.622 10.306C90.0974 10.306 89.6348 10.4347 89.2354 10.6899L88.9951 9.93305C89.4893 9.63495 90.0997 9.48535 90.8194 9.48535C92.2094 9.48535 92.9066 10.2004 92.9066 11.6304V13.54C92.9066 14.0581 92.9326 14.4706 92.9833 14.7764ZM91.7558 12.9944V12.1947C90.4516 12.1727 89.7995 12.5214 89.7995 13.2397C89.7995 13.5103 89.874 13.7127 90.0263 13.848C90.1786 13.9833 90.3727 14.0504 90.604 14.0504C90.8634 14.0504 91.106 13.9701 91.3271 13.8106C91.5494 13.65 91.6859 13.4465 91.7367 13.1968C91.7491 13.1407 91.7558 13.0725 91.7558 12.9944Z" fill="white"/>
<path d="M99.7019 14.7764H98.6527L98.5974 13.9437H98.5647C98.2296 14.5773 97.6587 14.8941 96.8566 14.8941C96.2158 14.8941 95.6821 14.6488 95.259 14.1582C94.836 13.6676 94.625 13.0307 94.625 12.2486C94.625 11.4093 94.854 10.7295 95.3143 10.2103C95.76 9.72627 96.306 9.48427 96.9559 9.48427C97.67 9.48427 98.1698 9.71857 98.4541 10.1883H98.4767V7.21167H99.6602V13.3794C99.6602 13.8843 99.6737 14.3496 99.7019 14.7764ZM98.4767 12.5896V11.725C98.4767 11.5754 98.4654 11.4544 98.444 11.362C98.3774 11.0848 98.2341 10.8516 98.0164 10.6635C97.7964 10.4754 97.5312 10.3808 97.2255 10.3808C96.7844 10.3808 96.4391 10.5513 96.1853 10.8934C95.9337 11.2355 95.8062 11.6722 95.8062 12.2057C95.8062 12.7183 95.9269 13.1341 96.1695 13.4542C96.4256 13.7952 96.7708 13.9657 97.2029 13.9657C97.591 13.9657 97.9013 13.8238 98.1371 13.5389C98.365 13.276 98.4767 12.9592 98.4767 12.5896Z" fill="white"/>
<path d="M109.814 12.1408C109.814 12.9383 109.581 13.5917 109.114 14.1042C108.624 14.6311 107.976 14.8941 107.165 14.8941C106.386 14.8941 105.764 14.6422 105.299 14.1362C104.837 13.6313 104.605 12.9944 104.605 12.2266C104.605 11.4236 104.843 10.7647 105.322 10.2532C105.8 9.74165 106.443 9.48535 107.254 9.48535C108.034 9.48535 108.662 9.73725 109.136 10.2422C109.587 10.7328 109.814 11.3664 109.814 12.1408ZM108.589 12.1782C108.589 11.6997 108.483 11.2894 108.272 10.9473C108.023 10.5337 107.671 10.3269 107.21 10.3269C106.736 10.3269 106.375 10.5337 106.126 10.9473C105.914 11.2894 105.809 11.7063 105.809 12.1991C105.809 12.6776 105.915 13.0879 106.126 13.43C106.382 13.8436 106.739 14.0504 107.199 14.0504C107.65 14.0504 108.006 13.8403 108.261 13.419C108.478 13.0703 108.589 12.6567 108.589 12.1782Z" fill="white"/>
<path d="M116.172 14.7765H114.99V11.8065C114.99 10.8913 114.634 10.4337 113.917 10.4337C113.567 10.4337 113.283 10.5591 113.065 10.811C112.846 11.0629 112.736 11.3599 112.736 11.6998V14.7754H111.553V11.0728C111.553 10.6174 111.539 10.1235 111.511 9.58888H112.549L112.604 10.3996H112.637C112.776 10.1477 112.981 9.93978 113.25 9.77368C113.571 9.58008 113.929 9.48218 114.322 9.48218C114.818 9.48218 115.231 9.63838 115.559 9.95188C115.969 10.3358 116.172 10.9089 116.172 11.6701V14.7765Z" fill="white"/>
<path d="M124.129 10.4545H122.827V12.9735C122.827 13.6137 123.058 13.9338 123.516 13.9338C123.728 13.9338 123.904 13.9162 124.043 13.8799L124.073 14.7544C123.84 14.8402 123.533 14.8831 123.155 14.8831C122.688 14.8831 122.325 14.7445 122.062 14.4673C121.798 14.1901 121.667 13.7237 121.667 13.0692V10.4545H120.89V9.59096H121.667V8.64056L122.826 8.29956V9.58986H124.128V10.4545H124.129Z" fill="white"/>
<path d="M130.388 14.7764H129.205V11.8284C129.205 10.8989 128.848 10.4336 128.134 10.4336C127.586 10.4336 127.211 10.7031 127.006 11.2421C126.971 11.3554 126.951 11.494 126.951 11.6568V14.7753H125.769V7.21167H126.951V10.3368H126.973C127.345 9.76807 127.879 9.48427 128.571 9.48427C129.06 9.48427 129.465 9.64047 129.787 9.95397C130.187 10.3445 130.388 10.9253 130.388 11.6931V14.7764Z" fill="white"/>
<path d="M136.845 11.9385C136.845 12.1453 136.829 12.3191 136.801 12.461H133.255C133.271 12.9736 133.44 13.3641 133.768 13.6347C134.068 13.8767 134.455 13.9977 134.929 13.9977C135.454 13.9977 135.932 13.9163 136.363 13.7524L136.548 14.5532C136.044 14.7666 135.45 14.8733 134.763 14.8733C133.94 14.8733 133.291 14.6368 132.822 14.1638C132.35 13.6908 132.116 13.0561 132.116 12.2597C132.116 11.4776 132.334 10.8264 132.773 10.3072C133.231 9.75279 133.851 9.47559 134.632 9.47559C135.397 9.47559 135.978 9.75279 136.371 10.3072C136.688 10.7472 136.845 11.2917 136.845 11.9385ZM135.717 11.6404C135.726 11.2983 135.648 11.0035 135.488 10.7549C135.282 10.4348 134.97 10.2742 134.547 10.2742C134.161 10.2742 133.846 10.4304 133.606 10.7439C133.409 10.9936 133.293 11.2917 133.255 11.6404H135.717Z" fill="white"/>
</svg>
