<svg width="161" height="160" viewBox="0 0 161 160" fill="none" xmlns="http://www.w3.org/2000/svg">
<path fill-rule="evenodd" clip-rule="evenodd" d="M69.1317 76.216C68.8277 76.28 68.8837 76.728 69.1317 76.92C69.2309 76.9836 69.3429 77.0246 69.4597 77.04H70.3317C70.4509 77.0269 70.5629 76.9765 70.6517 76.896C70.684 76.8611 70.7062 76.8181 70.716 76.7717C70.7259 76.7252 70.723 76.6769 70.7077 76.632C70.5477 75.92 69.8757 76.136 69.1317 76.216ZM70.3557 76.832C69.8277 76.832 69.2357 76.96 69.0837 76.592C69.0277 76.48 69.0197 76.352 69.1397 76.296C69.8837 76.296 70.4117 76.152 70.5557 76.688C70.5797 76.8 70.4597 76.8 70.3557 76.8V76.832ZM94.9877 61.224C94.3557 57.296 93.8437 56.976 94.4037 60.584C94.4917 61.16 94.5797 61.608 94.5797 61.608C94.5841 61.6438 94.5974 61.6779 94.6184 61.7072C94.6393 61.7366 94.6673 61.7602 94.6997 61.776C94.7316 61.7935 94.7674 61.8026 94.8037 61.8026C94.8401 61.8026 94.8759 61.7935 94.9077 61.776C94.9957 61.728 96.9157 60.768 96.8277 60.584C96.7397 60.4 95.1317 61.16 94.9877 61.224ZM97.8197 62.568C97.7477 62.664 97.8997 62.776 97.9717 62.68C98.3477 62.448 99.2357 61.584 100.252 62C100.26 62.0087 100.27 62.0156 100.281 62.0204C100.292 62.0251 100.304 62.0276 100.316 62.0276C100.328 62.0276 100.34 62.0251 100.351 62.0204C100.362 62.0156 100.372 62.0087 100.38 62C100.5 61.768 99.1077 60.6 97.8197 62.568ZM92.7237 54.736C92.7237 54.7105 92.7136 54.6861 92.6956 54.6681C92.6776 54.6501 92.6532 54.64 92.6277 54.64C92.6023 54.64 92.5779 54.6501 92.5599 54.6681C92.5419 54.6861 92.5317 54.7105 92.5317 54.736C92.3303 55.2911 92.0786 55.8266 91.7797 56.336C91.7692 56.3433 91.7603 56.3527 91.7534 56.3635C91.7465 56.3743 91.7418 56.3864 91.7396 56.399C91.7373 56.4116 91.7376 56.4246 91.7404 56.4371C91.7432 56.4496 91.7484 56.4615 91.7557 56.472C91.7631 56.4825 91.7724 56.4914 91.7833 56.4983C91.7941 56.5052 91.8061 56.5099 91.8188 56.5121C91.8314 56.5144 91.8443 56.5141 91.8569 56.5113C91.8694 56.5085 91.8812 56.5033 91.8917 56.496C91.9766 56.4598 92.0571 56.4141 92.1317 56.36C92.369 56.1689 92.5495 55.9166 92.6539 55.6304C92.7582 55.3442 92.7824 55.0349 92.7237 54.736ZM97.8437 54.992C97.5237 55.104 95.6357 53.864 95.5237 54.016C95.4117 54.168 97.2757 55.784 97.9237 55.152C98.0517 55.088 97.9477 54.928 97.8437 54.992ZM44.6277 52.36C45.2606 52.36 45.8793 52.1723 46.4056 51.8207C46.9318 51.469 47.3419 50.9693 47.5841 50.3845C47.8263 49.7998 47.8897 49.1564 47.7662 48.5357C47.6428 47.9149 47.338 47.3447 46.8905 46.8972C46.4429 46.4497 45.8728 46.1449 45.252 46.0214C44.6313 45.898 43.9879 45.9613 43.4031 46.2035C42.8184 46.4457 42.3187 46.8559 41.967 47.3821C41.6154 47.9084 41.4277 48.5271 41.4277 49.16C41.4277 50.0087 41.7649 50.8226 42.365 51.4227C42.9651 52.0228 43.779 52.36 44.6277 52.36ZM58.6757 52.36C59.3086 52.36 59.9273 52.1723 60.4536 51.8207C60.9798 51.469 61.3899 50.9693 61.6322 50.3845C61.8744 49.7998 61.9377 49.1564 61.8142 48.5357C61.6908 47.9149 61.386 47.3447 60.9385 46.8972C60.4909 46.4497 59.9208 46.1449 59.3 46.0214C58.6793 45.898 58.0359 45.9613 57.4512 46.2035C56.8664 46.4457 56.3667 46.8559 56.015 47.3821C55.6634 47.9084 55.4757 48.5271 55.4757 49.16C55.4757 50.0087 55.8129 50.8226 56.413 51.4227C57.0131 52.0228 57.827 52.36 58.6757 52.36ZM74.7477 52.36C75.3806 52.36 75.9993 52.1723 76.5256 51.8207C77.0518 51.469 77.4619 50.9693 77.7041 50.3845C77.9464 49.7998 78.0097 49.1564 77.8862 48.5357C77.7628 47.9149 77.458 47.3447 77.0105 46.8972C76.563 46.4497 75.9928 46.1449 75.372 46.0214C74.7513 45.898 74.1079 45.9613 73.5231 46.2035C72.9384 46.4457 72.4387 46.8559 72.087 47.3821C71.7354 47.9084 71.5477 48.5271 71.5477 49.16C71.5477 50.0087 71.8849 50.8226 72.485 51.4227C73.0851 52.0228 73.899 52.36 74.7477 52.36Z" fill="#414141"/>
<path fill-rule="evenodd" clip-rule="evenodd" d="M154.82 106.832C154.34 106.832 149.276 106.544 142.404 106.752C142.931 106.044 143.334 105.252 143.596 104.408C143.62 104.413 143.645 104.408 143.666 104.395C143.687 104.381 143.702 104.36 143.708 104.336C144.379 100.505 144.26 96.5759 143.356 92.7922C142.11 87.2217 140.13 81.8414 137.468 76.7922C137.606 72.7927 136.422 68.8591 134.1 65.6002C132.364 63.2002 129.604 61.8322 126.652 61.1282C121.052 59.7762 114.692 60.7762 113.676 60.9442L107.652 56.8002C108.452 55.7922 109.38 52.1842 108.66 49.4162C108.253 47.8371 107.423 46.3989 106.26 45.2562V21.6002C106.26 19.2815 105.802 16.9857 104.912 14.8446C104.022 12.7035 102.717 10.7594 101.074 9.12392C99.43 7.48846 97.4794 6.19389 95.3339 5.3146C93.1884 4.43531 90.8903 3.98863 88.5717 4.00022H23.6517C19.0006 4.04007 14.5521 5.90866 11.2677 9.20206C7.98326 12.4955 6.12683 16.9491 6.09967 21.6002V86.5202C6.09336 88.8355 6.54394 91.1293 7.42559 93.2702C8.30725 95.4111 9.60265 97.3569 11.2376 98.9963C12.8725 100.636 14.8149 101.936 16.9533 102.824C19.0918 103.711 21.3844 104.168 23.6997 104.168H85.2437C85.0197 104.52 84.8037 104.904 84.6037 105.296C79.1877 115.784 88.4677 141.792 89.0917 143.52C89.0777 143.525 89.0652 143.534 89.0554 143.545C89.0456 143.556 89.0388 143.57 89.0357 143.584C88.8416 144.196 88.7815 144.843 88.8597 145.48C88.9173 145.934 89.1225 146.355 89.4437 146.68H89.5077L89.7157 149.56C88.44 150.231 87.2224 151.007 86.0757 151.88C85.2428 152.469 84.5625 153.248 84.0917 154.152C84.0556 154.236 84.0369 154.325 84.0369 154.416C84.0369 154.507 84.0556 154.597 84.0917 154.68C84.1679 154.831 84.2955 154.951 84.4517 155.016C85.3897 155.287 86.3766 155.345 87.3397 155.184C88.6837 155.064 95.1237 153.984 95.4037 153.24C95.6357 152.616 95.4037 147.44 95.4037 146.784C96.2037 146.784 96.4837 147.048 96.7957 145.44C96.9064 144.809 96.9466 144.168 96.9157 143.528C96.9164 143.506 96.9096 143.485 96.8965 143.468C96.8834 143.45 96.8648 143.438 96.8437 143.432C98.2773 133.849 98.6556 124.138 97.9717 114.472L100.372 114.264C100.372 114.264 99.1717 108.832 101.036 104.52C101.797 102.696 103.229 101.233 105.036 100.432L105.564 100.624C102.756 102.272 101.604 104.536 100.86 109.256C99.9797 114.896 105.876 142.64 106.172 144.032C106.153 144.035 106.135 144.043 106.121 144.056C106.106 144.069 106.096 144.086 106.092 144.104C106.092 144.184 105.396 146.12 106.5 147.2C106.54 147.235 106.591 147.255 106.644 147.256H106.9L107.116 150.224C105.841 150.9 104.624 151.679 103.476 152.552C102.42 153.352 100.644 155.072 101.876 155.688C102.815 155.955 103.801 156.01 104.764 155.848C107.205 155.597 109.617 155.11 111.964 154.392C112.22 154.313 112.465 154.2 112.692 154.056C112.743 154.019 112.785 153.97 112.812 153.912C112.908 153.223 112.94 152.527 112.908 151.832C112.908 150.168 112.804 147.992 112.772 147.336C113.26 147.336 113.5 147.552 113.804 145.992C113.914 145.361 113.955 144.72 113.924 144.08C113.929 144.068 113.932 144.054 113.932 144.04C113.932 144.026 113.929 144.013 113.924 144C116.956 138.648 119.788 115.496 119.788 115.496C120.476 115.496 121.14 115.4 121.796 115.344C121.796 115.952 121.916 150.992 121.916 150.992C121.916 151.005 121.918 151.017 121.923 151.028C121.928 151.039 121.935 151.049 121.944 151.057C121.953 151.066 121.964 151.072 121.976 151.076C121.987 151.08 121.999 151.081 122.012 151.08C122.024 151.081 122.036 151.08 122.048 151.076C122.059 151.072 122.07 151.066 122.079 151.057C122.088 151.049 122.095 151.039 122.1 151.028C122.105 151.017 122.108 151.005 122.108 150.992C122.108 150.992 122.036 115.928 122.028 115.32C134.708 114.144 140.028 109.904 142.212 107.032C148.556 107.224 154.26 106.96 154.876 106.96C154.888 106.96 154.901 106.958 154.912 106.953C154.924 106.948 154.935 106.941 154.944 106.932C154.952 106.923 154.96 106.913 154.964 106.901C154.969 106.889 154.972 106.877 154.972 106.864C154.965 106.85 154.956 106.838 154.944 106.829C154.933 106.819 154.919 106.813 154.904 106.81C154.889 106.806 154.874 106.807 154.859 106.811C154.844 106.815 154.831 106.822 154.82 106.832ZM113.676 61.1042C114.708 60.9362 120.972 60.0002 126.54 61.3762C129.412 62.0802 132.1 63.4002 133.74 65.7682C138.54 72.4962 137.452 80.1682 134.596 87.8642C132.899 85.2156 130.279 83.2913 127.244 82.4642C124.189 81.7014 120.967 81.983 118.092 83.2642C118.62 81.7282 119.196 80.0642 119.788 78.5122C120.781 75.7174 121.993 73.005 123.412 70.4002C123.42 70.392 123.427 70.3821 123.432 70.3711C123.437 70.3601 123.439 70.3482 123.439 70.3362C123.439 70.3242 123.437 70.3124 123.432 70.3014C123.427 70.2904 123.42 70.2804 123.412 70.2722C123.403 70.2635 123.394 70.2566 123.383 70.2518C123.372 70.2471 123.36 70.2446 123.348 70.2446C123.336 70.2446 123.324 70.2471 123.313 70.2518C123.302 70.2566 123.292 70.2635 123.284 70.2722C121.844 72.8787 120.616 75.5968 119.612 78.4002C117.5 83.9122 115.612 89.8562 115.308 90.8962C113.434 90.4993 111.527 90.277 109.612 90.2322C108.348 90.1762 107.044 90.1522 105.756 90.1522C104.221 87.9372 103.014 85.5122 102.172 82.9522C102.17 82.9397 102.165 82.9277 102.159 82.9171C102.152 82.9065 102.143 82.8974 102.132 82.8906C102.122 82.8838 102.11 82.8793 102.097 82.8775C102.085 82.8757 102.072 82.8766 102.06 82.8802C102.047 82.8821 102.035 82.8866 102.024 82.8933C102.013 82.9 102.003 82.9089 101.996 82.9193C101.989 82.9298 101.983 82.9416 101.98 82.9541C101.978 82.9666 101.977 82.9796 101.98 82.9922C102.407 85.4347 103.444 87.7298 104.996 89.6642C105.148 89.8322 105.3 90.0082 105.46 90.1682C95.6597 90.1682 96.1877 90.7362 95.2837 89.5922C94.7877 88.9682 94.2837 88.0562 93.5717 87.9362C93.3317 87.0882 93.1237 86.2722 92.9557 85.4882C91.5717 79.2562 91.4677 70.9282 96.7397 67.2882C97.3199 67.4493 97.9222 67.5168 98.5237 67.4882C100.001 67.396 101.443 66.9954 102.756 66.3122C103.404 67.5873 104.311 68.7127 105.42 69.6162C106.236 70.2759 107.268 70.6094 108.316 70.5522C109.836 70.4322 110.988 69.1922 111.812 67.6082C112.757 65.5465 113.386 63.3537 113.676 61.1042ZM106.164 58.0562L107.484 56.9922H107.524L113.3 61.1122C112.967 63.3057 112.312 65.438 111.356 67.4402C110.604 68.8722 109.596 70.0322 108.22 70.1362C107.284 70.1775 106.365 69.876 105.636 69.2882C104.528 68.3726 103.63 67.2294 103.004 65.9362C102.992 65.9061 102.974 65.8789 102.95 65.8568C102.927 65.8346 102.898 65.818 102.868 65.8082C102.838 65.7945 102.805 65.7874 102.772 65.7874C102.739 65.7874 102.706 65.7945 102.676 65.8082C101.371 66.5228 99.9274 66.9459 98.4437 67.0482C97.4848 67.1118 96.5289 66.886 95.6997 66.4002C93.0757 64.8002 89.9477 55.7682 90.8517 51.0562C91.4997 50.7202 94.8517 49.1602 100.452 49.7442C100.495 51.1131 100.461 52.4833 100.348 53.8482C100.802 53.8955 101.236 54.0597 101.607 54.3247C101.979 54.5897 102.275 54.9464 102.468 55.3602C103.068 56.7682 102.18 58.6082 103.268 58.5602C103.488 58.5496 103.703 58.49 103.897 58.3855C104.092 58.2811 104.26 58.1346 104.39 57.9567C104.521 57.7788 104.61 57.574 104.651 57.3573C104.692 57.1406 104.684 56.9175 104.628 56.7042C104.516 55.7762 104.028 53.1202 105.484 53.3042C106.94 53.4882 107.756 56.1682 106.164 58.0562ZM37.8197 69.3602C33.7385 67.5311 30.0885 64.8624 27.1077 61.5282C24.1009 58.2073 22.3961 53.9112 22.3077 49.4322C22.2677 43.2002 25.7557 37.6002 31.4757 33.2802C38.1797 28.2322 47.9557 25.0482 58.8357 25.0402C65.0382 24.9971 71.1969 26.0814 77.0117 28.2402C77.3029 29.7172 77.8855 31.1212 78.7256 32.3704C79.5657 33.6196 80.6463 34.6888 81.9043 35.5156C83.1623 36.3423 84.5725 36.9101 86.0525 37.1856C87.5324 37.4611 89.0524 37.4389 90.5237 37.1202C92.5308 39.3262 94.0251 41.9489 94.8997 44.8002C92.7719 46.162 91.222 48.2617 90.5477 50.6962C89.9877 52.8002 90.3237 56.0802 91.1557 59.1602C91.2837 59.6242 91.4197 60.0802 91.5637 60.5362C90.0506 62.4823 88.2766 64.2105 86.2917 65.6722C79.5237 70.6802 69.7317 73.8402 58.8357 73.8162C57.2357 73.8162 55.6357 73.7442 54.0357 73.6002C52.4357 73.4562 50.8597 73.2456 49.3077 72.9682C49.2766 72.9639 49.245 72.966 49.2148 72.9742C49.1845 72.9824 49.1562 72.9967 49.1317 73.0162L33.4917 85.6882L37.9477 69.6002C37.9543 69.5518 37.9455 69.5026 37.9225 69.4595C37.8996 69.4164 37.8636 69.3817 37.8197 69.3602ZM85.2997 25.4242C85.3274 23.8996 85.6993 22.4009 86.3877 21.0402C87.0517 19.8402 87.9477 19.1442 88.8677 19.2002C89.7877 19.2562 90.6917 19.8402 91.3557 21.0402C92.0632 22.3964 92.4543 23.8952 92.4997 25.4242C92.5877 31.9122 88.2517 34.1282 86.2277 29.9122C85.583 28.5056 85.2657 26.9711 85.2997 25.4242ZM85.5877 103.336H32.4997C24.1957 102.008 17.8357 95.2162 17.8357 86.5362V21.6002C17.8507 17.4167 19.3985 13.3838 22.1862 10.2644C24.9739 7.14504 28.8082 5.15551 32.9637 4.67222H88.5717C90.8331 4.67762 93.0711 5.1291 95.1578 6.00081C97.2444 6.87253 99.1385 8.14733 100.732 9.75222C102.281 11.3045 103.499 13.1547 104.313 15.1911C105.127 17.2275 105.52 19.4078 105.468 21.6002V44.8802C103.788 43.5202 101.708 42.7362 98.5317 43.3842C97.3838 43.622 96.2852 44.0549 95.2837 44.6642C94.4331 41.8515 92.9839 39.2561 91.0357 37.0562C93.1734 36.528 95.1109 35.3886 96.6117 33.7773C98.1124 32.166 99.1114 30.1524 99.4866 27.9826C99.8618 25.8129 99.5969 23.5808 98.7243 21.5591C97.8517 19.5374 96.4092 17.8136 94.573 16.5982C92.7368 15.3829 90.5864 14.7287 88.3845 14.7154C86.1825 14.7022 84.0244 15.3305 82.1737 16.5237C80.3231 17.7169 78.8599 19.4232 77.9631 21.4343C77.0663 23.4454 76.7746 25.6741 77.1237 27.8482C71.3082 25.7021 65.1544 24.6182 58.9557 24.6482C47.9397 24.6482 38.0277 27.8482 31.2277 32.9202C25.3637 37.3122 21.8037 43.1042 21.8037 49.4402C21.8991 54.0397 23.665 58.4472 26.7717 61.8402C29.7597 65.178 33.4107 67.8563 37.4917 69.7042L32.8917 86.2562C32.8772 86.3035 32.8787 86.3543 32.8961 86.4006C32.9135 86.4469 32.9457 86.4861 32.9877 86.5122C33.0272 86.5409 33.0748 86.5563 33.1237 86.5563C33.1725 86.5563 33.2201 86.5409 33.2597 86.5122L49.4517 73.4162C50.993 73.6882 52.5557 73.8909 54.1397 74.0242C55.7237 74.1576 57.3237 74.2269 58.9397 74.2322C69.9477 74.2322 79.8357 70.9842 86.6197 65.8802C88.582 64.4273 90.3415 62.7189 91.8517 60.8002C92.6517 63.2402 94.0357 66.4402 96.4597 67.2562C92.6837 69.7442 91.3957 74.9202 91.6597 79.6322C91.8105 82.4848 92.3626 85.3018 93.2997 88.0002C92.9545 88.0208 92.6201 88.1284 92.3278 88.313C92.0354 88.4977 91.7946 88.7534 91.6277 89.0562C83.8197 87.0642 81.4597 84.6082 81.3797 84.5682C80.9796 84.3379 80.6245 84.037 80.3317 83.6802C79.5317 82.6642 79.7477 81.7842 78.7317 81.1842C78.2539 80.9293 77.7097 80.826 77.1717 80.8882C75.3797 78.1362 73.1717 74.7762 73.1717 74.7762L67.9317 75.1282C67.7829 75.2456 67.6603 75.3927 67.5717 75.5602C67.5077 75.6962 67.2277 75.2642 70.9877 81.4482C70.9223 81.5459 70.8837 81.659 70.8757 81.7762C70.8584 82.1145 70.9129 82.4525 71.0357 82.7682C71.5237 84.1762 73.2037 86.4962 74.6597 86.4962C77.5717 86.4962 78.8677 88.2562 83.1157 92.5842C84.1477 93.6402 85.2837 94.7682 86.4837 95.8962C87.6837 97.0242 89.1317 98.2962 90.4837 99.4322C88.5361 100.265 86.8539 101.615 85.6197 103.336H85.5877ZM76.5717 82.4002C76.131 82.3058 75.6847 82.239 75.2357 82.2002C76.5397 81.7282 75.6917 80.5362 72.8357 80.7522C72.2596 80.7528 71.6989 80.9378 71.2357 81.2802L68.2517 75.8562L73.0517 75.5042C73.2997 75.9042 78.5717 84.1682 78.8997 84.6642L78.0437 84.7122C78.1317 84.1042 76.9077 83.8562 76.2917 83.7602L76.7077 83.6802C77.8997 83.3682 77.8437 82.6402 76.5717 82.4002ZM93.0037 146.4H90.6437V146.048C90.5877 145.56 90.4117 144.344 90.2757 143.648H92.8597C92.6707 144.547 92.7203 145.479 93.0037 146.352V146.4ZM89.1717 143.696H90.0517C89.8799 144.611 89.9886 145.556 90.3637 146.408H89.6197C88.7397 145.48 89.1797 143.728 89.1717 143.648V143.696ZM94.9957 153.16C95.1157 153.32 91.7957 154.176 89.0917 154.584C89.215 154.311 89.419 154.081 89.6764 153.927C89.9338 153.772 90.2322 153.7 90.5317 153.72C92.6357 153.72 93.0277 151.816 95.1077 151.016C95.1071 151.716 95.0697 152.416 94.9957 153.112V153.16ZM95.1157 150.76C93.5157 151.112 93.2757 151.704 92.0837 152.648C90.8917 153.592 90.5717 152.96 89.6837 153.448C89.4766 153.567 89.2978 153.729 89.1596 153.924C89.0215 154.119 88.9274 154.341 88.8837 154.576C87.5497 154.831 86.1844 154.88 84.8357 154.72C84.7505 154.699 84.6694 154.664 84.5957 154.616C84.5733 154.606 84.5533 154.592 84.5368 154.574C84.5202 154.556 84.5076 154.535 84.4997 154.512C84.485 154.468 84.485 154.42 84.4997 154.376C84.8997 153.304 86.5637 152.04 87.4997 151.384C87.5477 151.384 89.3317 152.408 89.3717 152.376C89.4117 152.344 88.8037 151.304 87.8437 151.144L88.4517 150.736L90.1397 151.536C90.2277 151.616 90.3557 151.48 90.2677 151.4C90.1115 151.154 89.9043 150.943 89.6601 150.783C89.4158 150.623 89.1402 150.517 88.8517 150.472L89.3557 150.16C89.9554 150.41 90.4993 150.778 90.9557 151.24C90.9957 151.328 91.1637 151.344 91.1317 151.136C91.8197 152.248 94.9557 150.032 95.1317 149.936C95.1237 150.224 95.1157 150.488 95.1157 150.744V150.76ZM89.7157 149.96C89.8837 149.864 89.9477 149.848 89.9797 149.776C91.0597 149.424 90.9237 150.232 91.0117 150.792C90.8678 150.568 90.6778 150.377 90.4543 150.232C90.2309 150.087 89.979 149.992 89.7157 149.952V149.96ZM95.1237 149.728C93.2677 150.376 91.5957 151.776 91.4197 150.448C91.2917 149.416 90.7317 149.176 89.9717 149.528L89.6597 146.76L95.1317 146.848C95.1317 147.32 95.1397 148.496 95.1237 149.72V149.728ZM95.4837 146.4L93.2757 146.36C93.3092 145.433 93.2259 144.506 93.0277 143.6H95.6997C95.6997 143.68 95.5957 145.6 95.4837 146.4ZM95.9877 146.4H95.7397C96.1545 145.519 96.2258 144.515 95.9397 143.584H96.6517C96.6347 144.56 96.4082 145.52 95.9877 146.4ZM90.8117 99.2882C89.4277 98.1362 88.0677 96.8882 86.8117 95.6242C85.5557 94.3602 84.5317 93.3282 83.5157 92.2642C79.5157 88.0882 77.9557 85.9762 74.7717 85.9762C73.5717 85.9762 72.0357 83.8242 71.5717 82.5682C71.4703 82.3142 71.424 82.0415 71.4357 81.7682C71.5157 80.9682 74.8437 81.0162 75.3557 81.5602C75.3298 81.586 75.3001 81.6076 75.2677 81.6242C75.0282 81.7413 74.7717 81.8196 74.5077 81.8562C72.9077 82.1442 72.4277 81.8562 72.4277 82.2562C72.4277 82.6562 72.9397 82.3362 75.5397 82.6162C76.0937 82.6398 76.6375 82.773 77.1397 83.0082C76.7077 83.4962 73.2757 83.4722 73.1957 83.4722C73.1481 83.4759 73.1034 83.4965 73.0697 83.5302C73.0359 83.5639 73.0154 83.6086 73.0117 83.6562C73.0117 83.705 73.0311 83.7518 73.0656 83.7863C73.1001 83.8208 73.1469 83.8402 73.1957 83.8402H73.9077C74.5637 83.8402 77.5397 83.9522 77.7717 84.5522C78.0037 85.1522 73.9557 85.1122 73.8757 85.1202C73.8635 85.1191 73.8512 85.1206 73.8395 85.1245C73.8279 85.1284 73.8173 85.1347 73.8082 85.143C73.7992 85.1513 73.792 85.1614 73.7871 85.1726C73.7821 85.1838 73.7796 85.196 73.7797 85.2082C73.7794 85.2332 73.7881 85.2575 73.8043 85.2766C73.8204 85.2957 73.8429 85.3084 73.8677 85.3122C73.9637 85.3122 77.3717 85.4962 77.9477 84.8562C78.5637 84.7922 79.4277 84.9602 79.2357 84.6402C79.3476 84.559 79.452 84.468 79.5477 84.3682L77.2997 81.0242C79.5557 81.1042 78.9557 82.6242 79.9877 83.9122C82.0677 86.5922 87.9317 88.5442 91.5397 89.2162C91.0117 90.8882 92.9717 92.9522 94.2997 94.1042C95.5413 95.2085 96.8419 96.2447 98.1957 97.2082C98.4597 97.3922 98.7077 97.5682 98.9397 97.7122C96.1491 97.6624 93.3794 98.2022 90.8117 99.2962V99.2882ZM101.3 98.4402C100.302 98.0393 99.3646 97.5007 98.5157 96.8402C97.1788 95.8856 95.8917 94.8629 94.6597 93.7762C90.9717 90.5762 92.1877 89.1922 92.1557 89.1122C92.2357 89.1122 93.0757 87.9202 93.9317 88.7202C94.2825 89.1072 94.6085 89.516 94.9077 89.9442C96.3237 91.7282 97.0917 90.2242 109.572 90.7442C111.519 90.7769 113.458 90.9965 115.364 91.4002C115.407 91.4103 115.453 91.4035 115.491 91.3812C115.53 91.3589 115.559 91.3228 115.572 91.2802C115.572 91.2802 116.612 87.8322 118.044 83.6242C120.951 82.5007 124.129 82.2805 127.164 82.9922C130.135 83.8477 132.736 85.669 134.556 88.1682C133.012 92.2962 129.588 99.7602 121.196 101.848C116.372 102.976 109.948 102.4 101.3 98.4402ZM110.236 146.912H107.74C107.661 145.991 107.53 145.075 107.348 144.168H110.1C109.902 145.08 109.954 146.028 110.252 146.912H110.236ZM106.676 146.912C105.796 146.064 106.236 144.312 106.228 144.232C106.236 144.212 106.236 144.189 106.228 144.168H107.18C106.985 145.09 107.083 146.049 107.46 146.912H106.676ZM112.516 151.92C112.525 152.554 112.488 153.188 112.404 153.816C112.468 153.888 112.156 153.944 111.9 154.032C110.136 154.573 108.333 154.977 106.508 155.24C106.629 154.964 106.832 154.733 107.09 154.577C107.348 154.42 107.647 154.348 107.948 154.368C110.012 154.368 110.5 152.448 112.524 151.672C112.54 151.728 112.5 151.816 112.5 151.896L112.516 151.92ZM112.516 151.448C110.012 152.008 109.924 153.848 107.932 153.928C107.538 153.924 107.156 154.056 106.849 154.303C106.543 154.549 106.331 154.895 106.252 155.28C105.268 155.416 103.156 155.696 102.204 155.416C102.1 155.416 101.892 155.312 101.868 155.208C101.856 155.166 101.856 155.122 101.868 155.08C102.304 154.246 102.928 153.526 103.692 152.976C104.076 152.664 104.492 152.36 104.876 152.08C105.676 152.488 106.532 153.016 106.612 153.072C106.629 153.091 106.653 153.103 106.678 153.104C106.704 153.106 106.729 153.097 106.748 153.08C106.767 153.063 106.778 153.039 106.78 153.014C106.781 152.988 106.773 152.963 106.756 152.944C106.597 152.659 106.376 152.413 106.111 152.224C105.845 152.034 105.541 151.906 105.22 151.848L105.828 151.44L107.516 152.24C107.604 152.328 107.732 152.192 107.644 152.104C107.484 151.86 107.276 151.652 107.033 151.492C106.789 151.332 106.515 151.225 106.228 151.176L106.732 150.864C108.876 152.024 108.236 152.096 108.468 152C108.48 151.997 108.491 151.991 108.5 151.983C108.51 151.974 108.518 151.964 108.523 151.953C108.528 151.942 108.531 151.929 108.531 151.917C108.531 151.904 108.529 151.892 108.524 151.88V151.84C109.188 152.92 112.1 150.88 112.524 150.648C112.548 150.896 112.548 151.2 112.54 151.424L112.516 151.448ZM107.124 150.648C107.292 150.544 107.356 150.536 107.388 150.456C108.388 150.136 108.308 150.744 108.42 151.472C108.278 151.251 108.092 151.062 107.873 150.918C107.654 150.773 107.407 150.676 107.148 150.632L107.124 150.648ZM112.532 150.408C111.62 150.728 109.228 152.072 108.932 151.6C108.772 151.352 108.932 150.152 108.052 150.072C107.819 150.056 107.585 150.105 107.38 150.216L107.052 147.344L112.532 147.416C112.556 147.864 112.564 149.112 112.556 150.4L112.532 150.408ZM137.604 107.024C135.804 107.824 133.684 108.688 131.364 109.52C129.764 110.104 128.02 110.664 126.236 111.168C123.72 111.892 121.16 112.453 118.572 112.848C118.452 113.784 115.86 131.584 115.596 133.168C114.948 137.072 114.26 140.936 113.62 144.16H113.7C113.686 145.139 113.456 146.104 113.028 146.984H112.86C113.226 146.089 113.279 145.097 113.012 144.168H113.364C119.684 100.816 117.508 115.768 117.972 112.528L118.244 112.256C120.887 111.87 123.503 111.315 126.076 110.592C127.844 110.104 129.556 109.56 131.18 108.992C133.5 108.192 135.628 107.392 137.436 106.632C140.564 105.336 142.74 104.232 143.356 103.952C143.068 103.509 142.753 103.084 142.412 102.68C142.412 102.68 140.06 103.984 136.364 105.608C134.564 106.408 132.444 107.28 130.124 108.112C128.524 108.688 126.772 109.248 124.996 109.76C122.481 110.477 119.924 111.035 117.34 111.432C117.228 112.544 115.324 128.352 114.94 131.072C114.628 133.304 114.284 135.544 113.94 137.672C113.556 140.008 113.14 142.208 112.788 144.144H112.844C112.844 144.224 112.796 145.232 112.596 146.952L110.508 146.912C110.532 145.985 110.46 145.057 110.292 144.144H112.5C112.836 142.192 113.164 139.968 113.492 137.616C113.796 135.472 116.692 111.12 116.692 111.12L116.964 110.84C119.607 110.454 122.223 109.899 124.796 109.176C126.564 108.688 128.276 108.144 129.9 107.576C132.22 106.776 134.348 105.976 136.156 105.176C139.644 103.728 141.956 102.56 142.228 102.416C138.732 98.4642 133.164 97.1202 130.14 96.6722C132.324 94.0176 134.004 90.9866 135.1 87.7282C136.411 84.3427 137.193 80.7757 137.42 77.1522C140.876 84.5362 144.844 96.0642 143.5 104.144C142.94 104.472 140.772 105.6 137.628 107.008L137.604 107.024Z" fill="#414141"/>
<path fill-rule="evenodd" clip-rule="evenodd" d="M90.3638 29.2967C90.9077 28.0792 91.1806 26.7581 91.1638 25.4247C91.2508 24.0618 91.0378 22.6963 90.5398 21.4247C90.1238 20.4567 89.5718 19.8247 88.8598 19.7527C88.1478 19.6807 87.5958 20.4567 87.1878 21.4247C85.2998 25.8967 88.0758 33.8567 90.3638 29.2967ZM92.8198 58.4647C92.8023 58.3742 92.7515 58.2936 92.6774 58.2388C92.6033 58.184 92.5114 58.159 92.4198 58.1687C91.9798 58.2327 92.1958 58.8087 92.3398 59.2807C92.3608 59.3704 92.4161 59.4482 92.4939 59.4976C92.5717 59.547 92.6657 59.5639 92.7558 59.5447C93.1798 59.4487 92.9078 58.9207 92.8198 58.4647ZM98.1558 57.0727C98.1547 57.0258 98.1439 56.9797 98.1239 56.9372C98.104 56.8948 98.0754 56.857 98.04 56.8263C98.0045 56.7956 97.9631 56.7726 97.9183 56.7589C97.8734 56.7452 97.8262 56.741 97.7797 56.7466C97.7331 56.7522 97.6883 56.7675 97.648 56.7915C97.6077 56.8155 97.5729 56.8476 97.5458 56.8859C97.5186 56.9241 97.4998 56.9676 97.4905 57.0136C97.4812 57.0595 97.4817 57.1069 97.4918 57.1527C97.5318 57.3927 97.5878 57.6407 97.6438 57.8727C97.6631 57.9643 97.7173 58.0448 97.795 58.097C97.8727 58.1493 97.9676 58.1693 98.0598 58.1527C98.4838 58.0647 98.2278 57.5207 98.1558 57.0727Z" fill="#414141"/>
</svg>
