<svg width="153" height="44" viewBox="0 0 153 44" fill="none" xmlns="http://www.w3.org/2000/svg">
<path d="M146.465 44H5.63327C2.53638 44 0 41.5236 0 38.5V5.5C0 2.47638 2.53638 2.32537e-06 5.63327 2.32537e-06H146.465C149.562 2.32537e-06 152.098 2.47638 152.098 5.5V38.5C152.098 41.5236 149.562 44 146.465 44Z" fill="black"/>
<path d="M146.465 0.881376C149.073 0.881376 151.196 2.9535 151.196 5.5V38.5C151.196 41.0465 149.073 43.1186 146.465 43.1186H5.63327C3.02507 43.1186 0.902731 41.0465 0.902731 38.5V5.5C0.902731 2.9535 3.02507 0.881376 5.63327 0.881376H146.465ZM146.465 2.32537e-06H5.63327C2.53638 2.32537e-06 0 2.47638 0 5.5V38.5C0 41.5236 2.53638 44 5.63327 44H146.465C149.562 44 152.098 41.5236 152.098 38.5V5.5C152.098 2.47638 149.562 2.32537e-06 146.465 2.32537e-06Z" fill="#A6A6A6"/>
<path d="M53.423 11.2681C53.423 12.1866 53.1413 12.9223 52.5865 13.4709C51.9485 14.1213 51.1176 14.4485 50.0994 14.4485C49.1262 14.4485 48.2953 14.1158 47.6137 13.4599C46.9307 12.7944 46.5898 11.9776 46.5898 11C46.5898 10.0224 46.9307 9.20564 47.6137 8.54564C48.2953 7.88426 49.1262 7.55151 50.0994 7.55151C50.5838 7.55151 51.0458 7.64914 51.4866 7.83064C51.926 8.01351 52.2837 8.26101 52.5428 8.56626L51.9541 9.14651C51.5021 8.62539 50.8866 8.36826 50.0994 8.36826C49.3896 8.36826 48.7741 8.61026 48.2517 9.09839C47.7348 9.58789 47.4757 10.2218 47.4757 11C47.4757 11.7783 47.7348 12.4176 48.2517 12.9071C48.7741 13.3898 49.3896 13.6373 50.0994 13.6373C50.8528 13.6373 51.4866 13.3898 51.9865 12.9016C52.3161 12.5785 52.5034 12.133 52.5527 11.5638H50.0994V10.769H53.3723C53.4117 10.9409 53.423 11.1073 53.423 11.2681Z" fill="white" stroke="white" stroke-width="0.16" stroke-miterlimit="10"/>
<path d="M58.6156 8.51251H55.5412V10.6025H58.3128V11.3973H55.5412V13.4873H58.6156V14.2971H54.6709V7.70264H58.6156V8.51251Z" fill="white" stroke="white" stroke-width="0.16" stroke-miterlimit="10"/>
<path d="M62.28 14.2971H61.4097V8.51251H59.5239V7.70264H64.1671V8.51251H62.28V14.2971Z" fill="white" stroke="white" stroke-width="0.16" stroke-miterlimit="10"/>
<path d="M67.5273 14.2971V7.70264H68.3963V14.2971H67.5273Z" fill="white" stroke="white" stroke-width="0.16" stroke-miterlimit="10"/>
<path d="M72.248 14.2971H71.3847V8.51251H69.4919V7.70264H74.1408V8.51251H72.248V14.2971Z" fill="white" stroke="white" stroke-width="0.16" stroke-miterlimit="10"/>
<path d="M82.9317 13.4489C82.2656 14.1158 81.4403 14.4485 80.4559 14.4485C79.4658 14.4485 78.6406 14.1158 77.9744 13.4489C77.3097 12.7834 76.9788 11.9666 76.9788 11C76.9788 10.0334 77.3097 9.21664 77.9744 8.55114C78.6406 7.88426 79.4658 7.55151 80.4559 7.55151C81.4347 7.55151 82.26 7.88426 82.9261 8.55664C83.5965 9.22764 83.9274 10.0389 83.9274 11C83.9274 11.9666 83.5964 12.7834 82.9317 13.4489ZM78.618 12.8961C79.1194 13.3898 79.7292 13.6373 80.4559 13.6373C81.177 13.6373 81.7924 13.3898 82.2881 12.8961C82.7881 12.4025 83.0416 11.7686 83.0416 11C83.0416 10.2314 82.7881 9.59751 82.2881 9.10389C81.7924 8.61026 81.177 8.36276 80.4559 8.36276C79.7292 8.36276 79.1194 8.61026 78.618 9.10389C78.1181 9.59751 77.8646 10.2314 77.8646 11C77.8646 11.7686 78.1181 12.4025 78.618 12.8961Z" fill="white" stroke="white" stroke-width="0.16" stroke-miterlimit="10"/>
<path d="M85.1482 14.2971V7.70264H86.2044L89.4886 12.8314H89.5267L89.4886 11.5636V7.70264H90.3576V14.2971H89.4506L86.0115 8.91539H85.9735L86.0115 10.1886V14.2971H85.1482Z" fill="white" stroke="white" stroke-width="0.16" stroke-miterlimit="10"/>
<path d="M76.7645 23.9279C74.1183 23.9279 71.9565 25.8941 71.9565 28.607C71.9565 31.2979 74.1183 33.2847 76.7645 33.2847C79.4163 33.2847 81.5781 31.2979 81.5781 28.607C81.5781 25.8941 79.4163 23.9279 76.7645 23.9279ZM76.7645 31.4422C75.3125 31.4422 74.0633 30.2721 74.0633 28.607C74.0633 26.9199 75.3125 25.7704 76.7645 25.7704C78.2165 25.7704 79.4713 26.9199 79.4713 28.607C79.4713 30.2721 78.2165 31.4422 76.7645 31.4422ZM66.2739 23.9279C63.6221 23.9279 61.4659 25.8941 61.4659 28.607C61.4659 31.2979 63.6221 33.2847 66.2739 33.2847C68.9244 33.2847 71.0819 31.2979 71.0819 28.607C71.0819 25.8941 68.9244 23.9279 66.2739 23.9279ZM66.2739 31.4422C64.8205 31.4422 63.5671 30.2721 63.5671 28.607C63.5671 26.9199 64.8205 25.7704 66.2739 25.7704C67.7259 25.7704 68.9751 26.9199 68.9751 28.607C68.9751 30.2721 67.7259 31.4422 66.2739 31.4422ZM53.7906 25.362V27.3502H58.6535C58.5113 28.4612 58.131 29.278 57.548 29.8472C56.8382 30.5347 55.7327 31.2979 53.7906 31.2979C50.7979 31.2979 48.4545 28.9397 48.4545 26.0179C48.4545 23.096 50.7979 20.7379 53.7906 20.7379C55.4088 20.7379 56.5861 21.3552 57.455 22.1555L58.8901 20.7544C57.6747 19.6214 56.058 18.751 53.7906 18.751C49.6868 18.751 46.2378 22.0111 46.2378 26.0179C46.2378 30.0246 49.6868 33.2847 53.7906 33.2847C56.0087 33.2847 57.6747 32.5752 58.9845 31.2442C60.3266 29.9339 60.7449 28.0914 60.7449 26.6036C60.7449 26.1416 60.7054 25.7167 60.635 25.362H53.7906ZM104.836 26.9034C104.441 25.857 103.22 23.9279 100.733 23.9279C98.2681 23.9279 96.2162 25.824 96.2162 28.607C96.2162 31.2277 98.2469 33.2847 100.969 33.2847C103.17 33.2847 104.441 31.9744 104.963 31.2112L103.33 30.1484C102.785 30.9266 102.042 31.4422 100.969 31.4422C99.9031 31.4422 99.1384 30.9651 98.6483 30.0246L105.058 27.4355L104.836 26.9034ZM98.3019 28.4612C98.247 26.6572 99.737 25.7332 100.804 25.7332C101.641 25.7332 102.351 26.1416 102.587 26.726L98.3019 28.4612ZM93.0925 33.0001H95.1994V19.2501H93.0925V33.0001ZM89.6421 24.9701H89.5717C89.0985 24.4229 88.1958 23.9279 87.0522 23.9279C84.6525 23.9279 82.4583 25.9849 82.4583 28.6221C82.4583 31.2442 84.6525 33.2847 87.0522 33.2847C88.1958 33.2847 89.0985 32.7856 89.5717 32.2219H89.6421V32.8929C89.6421 34.6817 88.6633 35.6429 87.0846 35.6429C85.7974 35.6429 84.9989 34.7354 84.6694 33.9722L82.8371 34.7189C83.3653 35.9591 84.7637 37.4854 87.0846 37.4854C89.5548 37.4854 91.6391 36.0664 91.6391 32.6137V24.2125H89.6421V24.9701ZM87.2325 31.4422C85.7805 31.4422 84.5651 30.2556 84.5651 28.6221C84.5651 26.9735 85.7805 25.7704 87.2325 25.7704C88.6634 25.7704 89.7914 26.9735 89.7914 28.6221C89.7914 30.2556 88.6634 31.4422 87.2325 31.4422ZM114.7 19.2501H109.661V33.0001H111.763V27.7902H114.7C117.034 27.7902 119.322 26.1416 119.322 23.5195C119.322 20.8987 117.028 19.2501 114.7 19.2501ZM114.755 25.8776H111.763V21.1627H114.755C116.324 21.1627 117.22 22.4346 117.22 23.5195C117.22 24.5837 116.324 25.8776 114.755 25.8776ZM127.744 23.9017C126.226 23.9017 124.647 24.5562 123.998 26.0069L125.863 26.77C126.264 26.0069 127.002 25.7594 127.782 25.7594C128.872 25.7594 129.978 26.3987 129.995 27.5276V27.672C129.614 27.4575 128.8 27.1399 127.799 27.1399C125.791 27.1399 123.745 28.2192 123.745 30.2336C123.745 32.0761 125.389 33.2627 127.239 33.2627C128.653 33.2627 129.433 32.6399 129.923 31.9152H129.995V32.9781H132.024V27.7036C132.024 25.2657 130.159 23.9017 127.744 23.9017ZM127.491 31.4367C126.803 31.4367 125.846 31.104 125.846 30.2721C125.846 29.2079 127.04 28.7995 128.074 28.7995C128.999 28.7995 129.433 28.9989 129.995 29.2615C129.83 30.5347 128.707 31.4367 127.491 31.4367ZM139.418 24.2029L137.002 30.1635H136.931L134.434 24.2029H132.168L135.919 32.5326L133.779 37.1677H135.974L141.756 24.2029H139.418ZM120.477 33.0001H122.584V19.2501H120.477V33.0001Z" fill="white"/>
<path d="M11.7566 8.2926C11.4257 8.63085 11.2341 9.15748 11.2341 9.83948V34.166C11.2341 34.848 11.4257 35.3746 11.7566 35.7129L11.8383 35.7871L25.8004 22.1609V21.8391L11.8383 8.21286L11.7566 8.2926Z" fill="url(#paint0_linear_3023_8862)"/>
<path d="M30.4492 26.7053L25.8003 22.1609V21.8392L30.4548 17.2948L30.559 17.3539L36.0712 20.4161C37.6442 21.2851 37.6442 22.7151 36.0712 23.5896L30.559 26.6462L30.4492 26.7053Z" fill="url(#paint1_linear_3023_8862)"/>
<path d="M30.559 26.6462L25.8003 22.0001L11.7566 35.713C12.2791 36.2492 13.1311 36.3138 14.1 35.7776L30.559 26.6462Z" fill="url(#paint2_linear_3023_8862)"/>
<path d="M30.559 17.3539L14.1 8.2225C13.1311 7.69175 12.2791 7.75638 11.7566 8.29263L25.8003 22L30.559 17.3539Z" fill="url(#paint3_linear_3023_8862)"/>
<defs>
<linearGradient id="paint0_linear_3023_8862" x1="24.5607" y1="34.4193" x2="6.10535" y2="15.5168" gradientUnits="userSpaceOnUse">
<stop stop-color="#00A0FF"/>
<stop offset="0.0066" stop-color="#00A1FF"/>
<stop offset="0.2601" stop-color="#00BEFF"/>
<stop offset="0.5122" stop-color="#00D2FF"/>
<stop offset="0.7604" stop-color="#00DFFF"/>
<stop offset="1" stop-color="#00E3FF"/>
</linearGradient>
<linearGradient id="paint1_linear_3023_8862" x1="38.1196" y1="21.9985" x2="10.858" y2="21.9985" gradientUnits="userSpaceOnUse">
<stop stop-color="#FFE000"/>
<stop offset="0.4087" stop-color="#FFBD00"/>
<stop offset="0.7754" stop-color="#FFA500"/>
<stop offset="1" stop-color="#FF9C00"/>
</linearGradient>
<linearGradient id="paint2_linear_3023_8862" x1="27.9714" y1="19.4744" x2="2.94444" y2="-6.159" gradientUnits="userSpaceOnUse">
<stop stop-color="#FF3A44"/>
<stop offset="1" stop-color="#C31162"/>
</linearGradient>
<linearGradient id="paint3_linear_3023_8862" x1="8.22149" y1="43.8062" x2="19.3971" y2="32.3598" gradientUnits="userSpaceOnUse">
<stop stop-color="#32A071"/>
<stop offset="0.0685" stop-color="#2DA771"/>
<stop offset="0.4762" stop-color="#15CF74"/>
<stop offset="0.8009" stop-color="#06E775"/>
<stop offset="1" stop-color="#00F076"/>
</linearGradient>
</defs>
</svg>
